<?xml version="1.0" encoding="utf-8"?>
<!-- Generator: Adobe Illustrator 17.0.1, SVG Export Plug-In . SVG Version: 6.00 Build 0)  -->
<!DOCTYPE svg PUBLIC "-//W3C//DTD SVG 1.1//EN" "http://www.w3.org/Graphics/SVG/1.1/DTD/svg11.dtd">
<svg version="1.1" id="Capa_1" xmlns="http://www.w3.org/2000/svg" xmlns:xlink="http://www.w3.org/1999/xlink" x="0px" y="0px"
	 width="276px" height="188px" viewBox="0 0 276 188" enable-background="new 0 0 276 188" xml:space="preserve">
<g>
	<g>
		<g>
			<path fill="#FFFFFF" d="M30.764,102.455c-0.287,0-0.575-0.094-0.814-0.288c-0.551-0.446-0.633-1.25-0.183-1.796
				c4.47-5.423,6.066-14.623,4.496-25.906c-2.001-14.383-8.888-28.968-16.018-33.925c-0.583-0.405-0.724-1.201-0.315-1.778
				c0.409-0.577,1.213-0.717,1.795-0.312c7.78,5.409,14.968,20.409,17.091,35.666c1.669,11.994-0.125,21.892-5.052,27.87
				C31.508,102.295,31.138,102.455,30.764,102.455z"/>
		</g>
		<g>
			<path fill="#FFFFFF" d="M4.262,44.415c-0.577,0-1.103-0.387-1.249-0.967c-0.172-0.684,0.248-1.377,0.938-1.548l14.721-3.645
				c0.691-0.171,1.389,0.245,1.562,0.929c0.172,0.684-0.248,1.377-0.938,1.548L4.575,44.377C4.471,44.403,4.366,44.415,4.262,44.415
				z"/>
		</g>
		<g>
			<path fill="#FFFFFF" d="M34.061,68.003c-0.662,0-1.225-0.503-1.282-1.169c-0.06-0.703,0.466-1.321,1.175-1.38
				c0.087-0.007,8.799-0.741,17.103-1.532c13.222-1.26,22.457-8.996,22.457-18.812c0-10.37-10.019-18.806-22.333-18.806
				S28.847,34.741,28.847,45.11c0,3.493,1.527,7.45,3.178,11.206c0.284,0.646-0.015,1.399-0.667,1.68
				c-0.653,0.281-1.412-0.015-1.695-0.661c-1.762-4.009-3.392-8.265-3.392-12.226c0-11.778,11.174-21.36,24.909-21.36
				s24.91,9.582,24.91,21.36c0,11.182-10.192,19.963-24.787,21.354c-8.318,0.793-17.044,1.527-17.132,1.535
				C34.135,68.002,34.098,68.003,34.061,68.003z"/>
		</g>
		<g>
			<path fill="#FFFFFF" d="M102.547,113.408c-0.488,0-0.955-0.276-1.172-0.744c-0.296-0.641-0.013-1.399,0.634-1.693
				c5.903-2.685,7.749-9.861,8.258-15.407c1.424-15.51-5.817-37.356-14.348-43.288c-0.583-0.405-0.724-1.201-0.315-1.778
				c0.41-0.577,1.213-0.716,1.795-0.312c9.308,6.472,16.953,29.063,15.434,45.609c-0.819,8.917-4.19,14.967-9.75,17.496
				C102.91,113.37,102.727,113.408,102.547,113.408z"/>
		</g>
		<g>
			<path fill="#FFFFFF" d="M34.061,68.003c-0.661,0-1.224-0.502-1.282-1.167c-0.061-0.702,0.463-1.321,1.172-1.382
				c0.078-0.007,7.886-0.674,18.579-1.442c19.161-1.375,43.291-13.789,43.532-13.914c0.63-0.328,1.409-0.086,1.739,0.539
				c0.33,0.625,0.087,1.396-0.544,1.723c-1.005,0.521-24.85,12.785-44.541,14.199c-10.674,0.766-18.465,1.432-18.542,1.439
				C34.136,68.002,34.098,68.003,34.061,68.003z"/>
		</g>
		<g>
			<path fill="#FFFFFF" d="M89.381,116.638c-13.665,0-25.652-10.513-25.652-22.498c0-5.314,2.266-10.427,6.379-14.397
				c4.776-4.61,11.55-7.148,18.564-6.962c31.773,0.836,44.306,4.747,44.824,4.913c0.677,0.217,1.048,0.937,0.829,1.608
				c-0.22,0.671-0.948,1.038-1.622,0.822c-0.187-0.059-12.862-3.968-44.099-4.79c-6.323-0.162-12.416,2.107-16.698,6.239
				c-3.612,3.485-5.6,7.948-5.6,12.567c0,10.438,10.999,19.944,23.076,19.944c18.285,0,21.015-13.278,21.015-21.193
				c0-0.705,0.577-1.277,1.288-1.277c0.712,0,1.288,0.572,1.288,1.277C112.973,100.031,110.674,116.638,89.381,116.638z"/>
		</g>
		<g>
			<path fill="#FFFFFF" d="M133.819,121.202c-0.209,0-0.421-0.05-0.617-0.157c-10.337-5.605-9.565-37.642-8.883-65.907
				c0.418-17.302,0.891-36.912-2.314-39.11c-0.585-0.401-0.731-1.197-0.326-1.776c0.405-0.58,1.208-0.724,1.792-0.323
				c4.145,2.844,4.013,16.818,3.423,41.271c-0.632,26.174-1.417,58.748,7.544,63.606c0.624,0.338,0.853,1.114,0.512,1.733
				C134.716,120.962,134.275,121.202,133.819,121.202z"/>
		</g>
		<g>
			<path fill="#FFFFFF" d="M146.867,125.34c-0.05,0-0.1,0-0.149,0c-17.558-0.082-19.639-12.53-21.651-24.569l-0.133-0.796
				c-0.117-0.696,0.357-1.353,1.059-1.469c0.705-0.114,1.366,0.355,1.482,1.05l0.134,0.797c2.005,11.999,3.737,22.361,19.121,22.433
				c0.046,0,0.093,0,0.138,0c12.739,0,23.659-8.181,24.377-18.288c0.863-12.147-6.359-19.399-21.465-21.555
				c-31.268-4.462-41.364-7.772-41.779-7.91c-0.674-0.225-1.035-0.949-0.808-1.617c0.227-0.668,0.959-1.026,1.631-0.802
				c0.1,0.033,10.373,3.386,41.323,7.802c20.775,2.964,24.338,14.83,23.668,24.261C173.005,116.097,160.932,125.34,146.867,125.34z"
				/>
		</g>
		<g>
			<path fill="#FFFFFF" d="M122.316,14.978"/>
		</g>
		<g>
			<path fill="#FFFFFF" d="M107.594,18.623"/>
		</g>
		<g>
			<path fill="#FFFFFF" d="M215.803,129.758c-5.202,0-10.257-0.906-14.822-3.141c-10.772-5.276-18.024-24.323-21.554-56.61
				c-2.257-20.638-2.476-42.21-2.415-55.018c-2.541,12.237-7.118,31.346-17.169,44.752c-10.187,13.587-23.455,16.246-29.831,17.523
				c-1.072,0.215-2.283,0.457-2.629,0.623c-0.482,0.434-1.227,0.446-1.724,0.006c-0.53-0.47-0.576-1.277-0.102-1.803
				c0.593-0.657,1.644-0.868,3.945-1.329c6.062-1.215,18.676-3.742,28.274-16.544c10.797-14.401,15.139-35.903,17.471-47.454
				c0.99-4.902,1.453-7.109,2.06-8.049c0.305-0.472,0.885-0.691,1.431-0.541c0.545,0.15,0.927,0.636,0.942,1.196
				c0.018,0.68,0.001,2.101-0.024,4.252c-0.118,10.07-0.431,36.82,2.334,62.109c3.381,30.922,10.343,49.801,20.134,54.596
				c22.254,10.899,58.974-13.017,59.343-13.26c0.592-0.39,1.392-0.231,1.786,0.356c0.394,0.587,0.234,1.379-0.358,1.77
				C261.64,114.02,237.478,129.756,215.803,129.758z"/>
		</g>
		<g>
			<path fill="#FFFFFF" d="M235.613,94.837c-18.675,0-38.775-5.825-38.775-18.614c0-23.783,17.394-43.132,38.775-43.132
				s38.775,19.349,38.775,43.132C274.387,89.012,254.287,94.837,235.613,94.837z M235.612,35.644
				c-19.96,0-36.198,18.204-36.198,40.579c0,10.544,18.21,16.06,36.199,16.06c17.988,0,36.198-5.517,36.198-16.06
				C271.811,53.848,255.572,35.644,235.612,35.644z"/>
		</g>
	</g>
	<g>
		<path fill="#FFFFFF" d="M60.974,145.337c-7.882,0-11.822,0-19.628,0v7.435h18.036c0,3.98,0,7.961,0,11.941H41.347
			c0,3.079,0,6.083,0,9.238c7.805,0,12.353,0,20.31,0c0,3.905,0,7.961,0,11.941c-12.428,0-21.523,0-33.799,0
			c0-17.574,0-35.148,0-52.571c12.276,0,20.688,0,33.117,0C60.974,137.226,60.974,141.281,60.974,145.337z"/>
		<path fill="#FFFFFF" d="M95.604,132.645c10.686,0.075,21.825,5.557,24.402,18.625h-13.338c-2.198-4.506-5.683-6.309-11.064-6.309
			c-8.564,0-13.186,6.609-13.186,14.645c0,8.712,5.154,14.419,13.186,14.419c5.456,0,8.943-1.427,11.368-6.459H95.68v-11.641h25.084
			c0.303,5.257,0.303,10.289-1.516,15.396c-3.789,10.965-13.868,15.171-23.644,15.171c-13.489,0-27.13-8.937-27.206-26.887
			C68.474,141.657,82.115,132.645,95.604,132.645z"/>
		<path fill="#FFFFFF" d="M152.361,174.101c0,4.431,0,7.21,0,11.791c-9.018,0-17.885,0-26.903,0c0-4.581,0-7.36,0-11.791h6.744
			v-29.064h-6.214c0-4.506,0-7.285,0-11.716c8.639,0,17.203,0,25.842,0c0,4.431,0,7.21,0,11.716h-6.214v29.064H152.361z"/>
		<path fill="#FFFFFF" d="M179.564,185.892h-20.006v-52.571h20.006C214.121,133.471,214.121,185.741,179.564,185.892z
			 M173.123,173.65h6.441c16.9,0,16.9-28.088,0-28.088h-6.441V173.65z"/>
		<path fill="#FFFFFF" d="M210.859,159.681c0-36.349,54.412-36.349,54.412,0C265.271,196.105,210.859,196.105,210.859,159.681z
			 M251.403,159.681c0-18.926-26.6-18.926-26.6,0C224.803,178.757,251.403,178.757,251.403,159.681z"/>
	</g>
</g>
</svg>
