<?xml version="1.0" encoding="utf-8"?>
<!-- Generator: Adobe Illustrator 17.0.1, SVG Export Plug-In . SVG Version: 6.00 Build 0)  -->
<!DOCTYPE svg PUBLIC "-//W3C//DTD SVG 1.1//EN" "http://www.w3.org/Graphics/SVG/1.1/DTD/svg11.dtd">
<svg version="1.1" id="Capa_1" xmlns="http://www.w3.org/2000/svg" xmlns:xlink="http://www.w3.org/1999/xlink" x="0px" y="0px"
	 width="93px" height="63.34px" viewBox="0 0 93 63.34" enable-background="new 0 0 93 63.34" xml:space="preserve">
<g>
	<g>
		<g>
			<path fill="#FFFFFF" d="M10.103,34.572c-0.098,0-0.196-0.032-0.277-0.098c-0.188-0.152-0.215-0.425-0.062-0.611
				c1.521-1.845,2.064-4.976,1.53-8.815c-0.681-4.894-3.024-9.857-5.45-11.544c-0.198-0.138-0.246-0.409-0.107-0.605
				c0.139-0.196,0.413-0.244,0.611-0.106c2.647,1.841,5.093,6.945,5.815,12.136c0.568,4.081-0.042,7.449-1.719,9.483
				C10.356,34.518,10.23,34.572,10.103,34.572z"/>
		</g>
		<g>
			<path fill="#FFFFFF" d="M1.085,14.823c-0.196,0-0.375-0.132-0.425-0.329c-0.059-0.233,0.084-0.469,0.319-0.527l5.009-1.24
				c0.235-0.058,0.473,0.083,0.532,0.316c0.059,0.233-0.084,0.469-0.319,0.527l-5.009,1.24C1.156,14.819,1.12,14.823,1.085,14.823z"
				/>
		</g>
		<g>
			<path fill="#FFFFFF" d="M11.224,22.849c-0.225,0-0.417-0.171-0.436-0.398c-0.02-0.239,0.159-0.449,0.4-0.47
				c0.03-0.002,2.994-0.252,5.82-0.521c4.499-0.429,7.641-3.061,7.641-6.401c0-3.529-3.409-6.399-7.599-6.399
				S9.45,11.531,9.45,15.06c0,1.189,0.52,2.535,1.081,3.813c0.097,0.22-0.005,0.476-0.227,0.572
				c-0.222,0.096-0.48-0.005-0.577-0.225c-0.599-1.364-1.154-2.812-1.154-4.16c0-4.008,3.802-7.268,8.476-7.268
				s8.476,3.26,8.476,7.268c0,3.805-3.468,6.793-8.434,7.266c-2.83,0.27-5.8,0.52-5.829,0.522
				C11.249,22.849,11.237,22.849,11.224,22.849z"/>
		</g>
		<g>
			<path fill="#FFFFFF" d="M34.528,38.299c-0.166,0-0.325-0.094-0.399-0.253c-0.101-0.218-0.004-0.476,0.216-0.576
				c2.009-0.914,2.637-3.355,2.81-5.243c0.484-5.278-1.979-12.711-4.882-14.729c-0.198-0.138-0.246-0.409-0.107-0.605
				c0.139-0.196,0.413-0.244,0.611-0.106c3.167,2.202,5.769,9.889,5.252,15.519c-0.279,3.034-1.426,5.093-3.317,5.953
				C34.651,38.286,34.589,38.299,34.528,38.299z"/>
		</g>
		<g>
			<path fill="#FFFFFF" d="M11.224,22.849c-0.225,0-0.416-0.171-0.436-0.397c-0.021-0.239,0.158-0.45,0.399-0.47
				c0.027-0.002,2.683-0.229,6.322-0.491c6.52-0.468,14.731-4.692,14.813-4.734c0.214-0.111,0.479-0.029,0.592,0.183
				c0.112,0.213,0.029,0.475-0.185,0.586c-0.342,0.177-8.456,4.35-15.156,4.831c-3.632,0.261-6.283,0.487-6.309,0.489
				C11.25,22.849,11.237,22.849,11.224,22.849z"/>
		</g>
		<g>
			<path fill="#FFFFFF" d="M30.048,39.398c-4.65,0-8.729-3.577-8.729-7.655c0-1.808,0.771-3.548,2.171-4.899
				c1.625-1.569,3.93-2.432,6.317-2.369c10.811,0.284,15.076,1.615,15.252,1.672c0.23,0.074,0.357,0.319,0.282,0.547
				c-0.075,0.228-0.323,0.353-0.552,0.28c-0.064-0.02-4.376-1.35-15.006-1.63c-2.151-0.055-4.225,0.717-5.682,2.123
				c-1.229,1.186-1.906,2.705-1.906,4.276c0,3.552,3.742,6.786,7.852,6.786c6.222,0,7.151-4.518,7.151-7.211
				c0-0.24,0.196-0.434,0.438-0.434c0.242,0,0.438,0.194,0.438,0.434C38.076,33.747,37.293,39.398,30.048,39.398z"/>
		</g>
		<g>
			<path fill="#FFFFFF" d="M45.169,40.951c-0.071,0-0.143-0.017-0.21-0.053c-3.517-1.907-3.255-12.808-3.023-22.426
				c0.142-5.887,0.303-12.56-0.787-13.308C40.95,5.027,40.9,4.757,41.038,4.559c0.138-0.197,0.411-0.246,0.61-0.11
				c1.41,0.968,1.366,5.723,1.165,14.043c-0.215,8.906-0.482,19.99,2.567,21.643c0.212,0.115,0.29,0.379,0.174,0.59
				C45.474,40.87,45.324,40.951,45.169,40.951z"/>
		</g>
		<g>
			<path fill="#FFFFFF" d="M49.609,42.359c-0.017,0-0.034,0-0.051,0c-5.975-0.028-6.683-4.264-7.367-8.36l-0.045-0.271
				c-0.04-0.237,0.122-0.46,0.36-0.5c0.24-0.039,0.465,0.121,0.504,0.357l0.046,0.271c0.682,4.083,1.272,7.609,6.506,7.633
				c0.016,0,0.032,0,0.047,0c4.335,0,8.051-2.784,8.295-6.223c0.293-4.133-2.164-6.601-7.304-7.334
				c-10.639-1.518-14.075-2.644-14.216-2.692c-0.229-0.077-0.352-0.323-0.275-0.55c0.077-0.227,0.326-0.349,0.555-0.273
				c0.034,0.011,3.529,1.152,14.061,2.655c7.069,1.009,8.281,5.046,8.054,8.255C58.503,39.214,54.394,42.359,49.609,42.359z"/>
		</g>
		<g>
			<path fill="#FFFFFF" d="M41.255,4.807"/>
		</g>
		<g>
			<path fill="#FFFFFF" d="M36.245,6.047"/>
		</g>
		<g>
			<path fill="#FFFFFF" d="M73.066,43.862c-1.77,0-3.49-0.308-5.043-1.069c-3.665-1.795-6.133-8.276-7.334-19.263
				C59.92,16.508,59.846,9.168,59.866,4.81c-0.865,4.164-2.422,10.666-5.842,15.228c-3.466,4.623-7.981,5.528-10.151,5.963
				c-0.365,0.073-0.777,0.156-0.895,0.212c-0.164,0.148-0.417,0.152-0.587,0.002c-0.18-0.16-0.196-0.435-0.035-0.613
				c0.202-0.224,0.559-0.295,1.342-0.452c2.063-0.413,6.355-1.273,9.621-5.629c3.674-4.9,5.151-12.217,5.945-16.147
				c0.337-1.668,0.494-2.419,0.701-2.739c0.104-0.161,0.301-0.235,0.487-0.184c0.185,0.051,0.315,0.216,0.321,0.407
				c0.006,0.231,0.001,0.715-0.008,1.447c-0.04,3.427-0.147,12.529,0.794,21.134c1.151,10.522,3.52,16.946,6.851,18.577
				c7.572,3.709,20.067-4.429,20.193-4.512c0.202-0.133,0.474-0.079,0.608,0.121c0.134,0.2,0.079,0.469-0.122,0.602
				C88.662,38.507,80.441,43.862,73.066,43.862z"/>
		</g>
		<g>
			<path fill="#FFFFFF" d="M79.806,31.98c-6.355,0-13.194-1.982-13.194-6.334c0-8.093,5.919-14.677,13.194-14.677
				C87.081,10.97,93,17.554,93,25.646C93,29.998,86.161,31.98,79.806,31.98z M79.806,11.838c-6.792,0-12.317,6.194-12.317,13.808
				c0,3.588,6.196,5.465,12.317,5.465c6.121,0,12.317-1.877,12.317-5.465C92.123,18.033,86.598,11.838,79.806,11.838z"/>
		</g>
	</g>
	<g>
		<path fill="#FFFFFF" d="M20.382,49.163c-2.682,0-4.023,0-6.679,0v2.53h6.137c0,1.354,0,2.709,0,4.063h-6.137
			c0,1.048,0,2.07,0,3.143c2.656,0,4.203,0,6.911,0c0,1.329,0,2.709,0,4.063c-4.229,0-7.323,0-11.501,0c0-5.98,0-11.96,0-17.888
			c4.177,0,7.04,0,11.269,0C20.382,46.404,20.382,47.784,20.382,49.163z"/>
		<path fill="#FFFFFF" d="M32.165,44.845c3.636,0.025,7.427,1.891,8.303,6.338H35.93c-0.748-1.533-1.934-2.147-3.765-2.147
			c-2.914,0-4.487,2.249-4.487,4.983c0,2.964,1.754,4.907,4.487,4.907c1.857,0,3.043-0.486,3.868-2.198h-3.842v-3.961h8.535
			c0.103,1.789,0.103,3.501-0.516,5.239c-1.289,3.731-4.719,5.162-8.045,5.162c-4.59,0-9.232-3.041-9.257-9.149
			C22.934,47.911,27.575,44.845,32.165,44.845z"/>
		<path fill="#FFFFFF" d="M51.478,58.951c0,1.508,0,2.453,0,4.012c-3.069,0-6.086,0-9.154,0c0-1.559,0-2.504,0-4.012h2.295v-9.89
			h-2.114c0-1.533,0-2.479,0-3.987c2.94,0,5.854,0,8.793,0c0,1.508,0,2.453,0,3.987h-2.114v9.89H51.478z"/>
		<path fill="#FFFFFF" d="M60.735,62.963h-6.808V45.075h6.808C72.493,45.126,72.493,62.912,60.735,62.963z M58.543,58.798h2.192
			c5.75,0,5.75-9.557,0-9.557h-2.192V58.798z"/>
		<path fill="#FFFFFF" d="M71.383,54.044c0-12.369,18.515-12.369,18.515,0C89.898,66.439,71.383,66.439,71.383,54.044z
			 M85.179,54.044c0-6.44-9.051-6.44-9.051,0C76.128,60.535,85.179,60.535,85.179,54.044z"/>
	</g>
</g>
</svg>
